<svg width="20" height="21" viewBox="0 0 20 21" fill="none" xmlns="http://www.w3.org/2000/svg">
<g clip-path="url(#clip0_6915_39080)">
<path d="M20 0.5H0V20.5H20V0.5Z" fill="white"/>
<path fill-rule="evenodd" clip-rule="evenodd" d="M20 0.5H0V20.5H20V0.5ZM15.1225 12.6722C15.1731 12.6792 15.2242 12.683 15.2753 12.6834C15.4364 12.6835 15.5958 12.6501 15.7436 12.5852C15.8914 12.5203 16.0245 12.4254 16.1346 12.3063C16.2448 12.1872 16.3297 12.0464 16.384 11.8926C16.4383 11.7389 16.4609 11.5755 16.4504 11.4126C16.4399 11.2496 16.3966 11.0906 16.323 10.9453C16.2495 10.8 16.1473 10.6716 16.0228 10.568C15.8983 10.4644 15.7542 10.3878 15.5993 10.3429C15.4444 10.2981 15.2821 10.286 15.1225 10.3073C15.1093 10.3091 15.0962 10.3112 15.0832 10.3134C15.0407 10.3204 14.9987 10.3298 14.9573 10.3415C14.9541 10.3424 14.9509 10.3432 14.9477 10.344C14.9439 10.3449 14.9402 10.3458 14.9366 10.3469C14.8886 10.3616 14.8416 10.3795 14.7959 10.4003C14.794 10.4012 14.7905 10.4029 14.7905 10.4029C14.785 10.4056 14.7796 10.4083 14.7741 10.411C14.7332 10.4305 14.6935 10.4524 14.6551 10.4766C14.6499 10.4796 14.6453 10.4824 14.6405 10.4856C14.5525 10.543 14.4725 10.612 14.4025 10.6909L14.3983 10.6955C14.3269 10.7765 14.2667 10.867 14.2194 10.9645H12.0261L11.236 4.49995H10.1059L7.56825 14.2743L6.74615 10.7736H3.8324V11.824H5.90437L6.99328 16.4228H8.09406L10.4721 7.43145L11.0843 12.0149H14.2194C14.2667 12.1125 14.3269 12.203 14.3983 12.284L14.4025 12.2886C14.4725 12.3674 14.5525 12.4365 14.6405 12.4939L14.6551 12.5029C14.6935 12.5271 14.7332 12.549 14.7741 12.5686C14.7813 12.572 14.7885 12.5758 14.7959 12.5792C14.8416 12.6 14.8886 12.6179 14.9366 12.6326C14.9404 12.6339 14.9444 12.6348 14.9484 12.6358C14.9514 12.6365 14.9543 12.6372 14.9573 12.638C14.9987 12.6497 15.0407 12.6591 15.0832 12.6661C15.0962 12.6683 15.1093 12.6705 15.1225 12.6722Z" fill="#009FC1"/>
</g>
<defs>
<clipPath id="clip0_6915_39080">
<rect width="20" height="20" fill="white" transform="translate(0 0.5)"/>
</clipPath>
</defs>
</svg>
